<?xml version="1.0" encoding="UTF-8" standalone="no"?>
<!-- Created with Inkscape (http://www.inkscape.org/) -->

<svg
   xmlns:dc="http://purl.org/dc/elements/1.1/"
   xmlns:cc="http://creativecommons.org/ns#"
   xmlns:rdf="http://www.w3.org/1999/02/22-rdf-syntax-ns#"
   xmlns:svg="http://www.w3.org/2000/svg"
   xmlns="http://www.w3.org/2000/svg"
   xmlns:sodipodi="http://sodipodi.sourceforge.net/DTD/sodipodi-0.dtd"
   xmlns:inkscape="http://www.inkscape.org/namespaces/inkscape"
   version="1.1"
   id="svg3708"
   width="655.35999"
   height="848"
   viewBox="0 0 655.35999 848"
   sodipodi:docname="violin-outline.svg"
   inkscape:version="0.92.0 r15299">
  <metadata
     id="metadata3714">
    <rdf:RDF>
      <cc:Work
         rdf:about="">
        <dc:format>image/svg+xml</dc:format>
        <dc:type
           rdf:resource="http://purl.org/dc/dcmitype/StillImage" />
        <dc:title></dc:title>
      </cc:Work>
    </rdf:RDF>
  </metadata>
  <defs
     id="defs3712" />
  <sodipodi:namedview
     pagecolor="#ffffff"
     bordercolor="#666666"
     borderopacity="1"
     objecttolerance="10"
     gridtolerance="10"
     guidetolerance="10"
     inkscape:pageopacity="0"
     inkscape:pageshadow="2"
     inkscape:window-width="1920"
     inkscape:window-height="1017"
     id="namedview3710"
     showgrid="false"
     inkscape:zoom="0.55660377"
     inkscape:cx="-387.5976"
     inkscape:cy="497.76523"
     inkscape:window-x="-8"
     inkscape:window-y="-8"
     inkscape:window-maximized="1"
     inkscape:current-layer="svg3708" />
  <path
     style="fill:#000000"
     d="m 243.29663,818.92959 c -3.85,-0.52973 -11.5,-2.06199 -17,-3.40501 -20.67789,-5.04926 -27.20647,-6.39155 -34.5,-7.09326 -6.36773,-0.61264 -8.33498,-1.28669 -13.03077,-4.46483 -10.39408,-7.03478 -23.47646,-14.6257 -35.65675,-20.68948 -32.39986,-16.1298 -53.363665,-41.61753 -59.759471,-72.65538 -8.243322,-40.00356 3.484817,-73.29018 39.586361,-112.35339 4.20165,-4.54635 8.6254,-10.36378 9.83055,-12.92764 2.26462,-4.81776 2.95082,-12.30045 1.64705,-17.96028 -0.6701,-2.90901 -0.37207,-3.36865 4.41345,-6.80671 l 5.13209,-3.68704 3.16874,2.36464 c 18.51059,13.81329 37.78553,5.39985 55.03459,-24.02237 4.95081,-8.44474 9.51837,-18.87474 11.98239,-27.36177 2.20412,-7.59181 4.65177,-22.26923 4.65177,-27.89447 0,-4.23295 -0.40852,-5.1241 -3.65615,-7.97556 -3.4494,-3.02862 -4.01661,-3.18719 -10.0304,-2.80426 l -6.37425,0.40588 -1.56704,-5.39041 -1.56703,-5.3904 5.45352,-4.86064 c 7.86428,-7.00932 9.71446,-11.93922 10.8341,-28.86806 1.71539,-25.93632 5.97511,-42.37054 14.89803,-57.47736 11.28628,-19.10808 31.96416,-35.9028 52.05154,-42.27662 7.82409,-2.48263 9.80611,-2.689 26.45768,-2.75483 13.66157,-0.054 19.89164,0.34909 25.84837,1.67247 4.3166,0.959 8.22497,1.51088 8.68526,1.22641 0.46029,-0.28448 1.73177,-2.87118 2.82552,-5.74823 1.09374,-2.87704 4.43918,-10.85599 7.43431,-17.73099 38.97126,-89.4543 59.16291,-136.0485 61.40596,-141.7002 0.57771,-1.45562 -11.81762,-7.28569 -15.58774,-7.3316 -1.43642,-0.0175 -3.48519,-0.6925 -4.55281,-1.5 -2.73187,-2.06629 -3.55887,-1.83705 -3.55887,0.98649 0,2.01362 -0.62889,2.57266 -3.5,3.11129 -1.925,0.36113 -4.99618,0.37592 -6.82484,0.0329 -5.64205,-1.0585 -11.67516,-9.24852 -11.67516,-15.84922 0,-1.84231 -0.52832,-3.87798 -1.17404,-4.5237 -0.89871,-0.89871 -0.60558,-1.70984 1.25,-3.45884 1.33322,-1.25665 3.6326,-3.74347 5.10973,-5.52627 4.80505,-5.79937 9.74733,-6.5735 17.45281,-2.7337 5.55323,2.76729 8.52656,6.72779 6.54129,8.71306 -1.98281,1.98281 -1.33754,2.77979 2.25066,2.77979 2.73439,0 3.49529,0.4325 3.75,2.13152 0.24469,1.63215 2.07661,2.80555 7.81955,5.00865 4.125,1.58242 7.96346,2.70037 8.52992,2.48432 1.32,-0.50345 9.94119,-21.48671 9.15221,-22.2757 -0.32617,-0.32617 -4.76721,-1.6772 -9.86897,-3.0023 -5.10176,-1.32509 -9.7118,-2.84513 -10.24454,-3.37787 -1.5418,-1.5418 -2.40527,-1.13932 -2.74907,1.28138 -0.27979,1.97006 -0.99189,2.28827 -5.7234,2.5576 -2.97211,0.16917 -6.59554,-0.18603 -8.05206,-0.78934 -3.67939,-1.52405 -7.90017,-8.45265 -8.66598,-14.22558 -0.35295,-2.66066 -1.03241,-5.079026 -1.50992,-5.374141 -1.36978,-0.84657 -1.01213,-2.418538 0.55025,-2.418538 0.78014,0 2.42049,-1.621357 3.64523,-3.603016 4.26622,-6.902896 11.08197,-9.034278 18.7048,-5.849256 6.62899,2.769767 10.36137,8.017927 7.12477,10.018255 -1.57325,0.972323 0.94236,2.399561 4.26314,2.418704 2.16103,0.01246 2.55885,0.388262 2.13337,2.015312 -0.28766,1.1 -0.27623,2 0.0254,2 0.30163,0 4.17051,1.33551 8.59752,2.9678 l 8.04912,2.9678 3.03779,-10.217797 c 1.67078,-5.619791 3.66985,-12.095259 4.44236,-14.389929 l 1.40457,-4.172127 -3.87297,-1.549656 c -2.13013,-0.852311 -4.39669,-2.528245 -5.0368,-3.724298 -1.52853,-2.856077 -0.69353,-9.797155 1.59959,-13.296902 1.6317,-2.490282 2.23327,-2.717442 5.71992,-2.159905 3.44751,0.55128 4.22293,0.273562 6.73014,-2.410411 2.47791,-2.65262 3.16704,-2.90674 5.48875,-2.024026 3.92442,1.492061 4.0483,1.427207 7.47554,-3.913685 4.77006,-7.433499 4.70954,-7.414307 13.12451,-4.161877 8.10644,3.133177 7.82336,2.622966 6.56943,11.840432 -0.676,4.969131 -0.57684,5.318342 1.82022,6.410515 2.00731,0.914594 2.53516,1.8804 2.53516,4.638605 0,2.766724 0.75253,4.134019 3.65724,6.644939 3.16766,2.738229 3.56057,3.546564 2.93514,6.038482 -0.39715,1.582378 -2.49685,4.651807 -4.666,6.820953 -3.63598,3.635985 -4.25447,3.894241 -7.92177,3.307815 l -3.97788,-0.636088 -0.64117,4.009681 C 472.65807,100.26799 472.13725,101 470.32934,101 c -1.36101,0 -2.63015,0.91844 -3.29966,2.38786 -1.05176,2.30835 -0.81846,2.49026 7.00625,5.46307 7.38074,2.80413 8.19998,2.93058 9.29393,1.43452 1.09412,-1.49631 1.4529,-1.44152 4.07695,0.62256 l 2.87726,2.26325 0.54647,-2.33563 c 0.81665,-3.49036 6.54144,-4.65958 12.1514,-2.48178 6.41493,2.49028 9.81469,7.8095 9.81469,15.35593 0,3.24795 0.5383,6.42852 1.2,7.09022 0.93333,0.93333 0.71776,1.2 -0.97006,1.2 -1.26898,0 -3.11677,1.28617 -4.45,3.09747 -2.96574,4.02917 -6.70136,5.90253 -11.77012,5.90253 -7.68912,0 -16.97975,-6.92145 -14.04202,-10.4612 1.59747,-1.92484 0.47774,-3.5388 -2.45515,-3.5388 -1.30312,0 -4.98906,-1.56046 -8.19098,-3.46769 -3.20192,-1.90723 -6.90989,-3.59473 -8.23993,-3.75 -2.22728,-0.26001 -2.6407,0.4285 -5.23462,8.71769 -1.549,4.95 -2.82328,9.7223 -2.83174,10.60511 -0.0104,1.08326 2.31545,2.46565 7.15373,4.25195 6.24274,2.30481 7.37339,2.46312 8.75,1.22509 1.3771,-1.23846 1.90179,-1.16084 4.07024,0.60217 l 2.48936,2.0239 0.55336,-2.34409 c 0.42542,-1.80211 1.45103,-2.49 4.43575,-2.97515 10.90152,-1.772 19.32549,6.77753 17.81011,18.07556 -0.35618,2.65552 -0.15429,4.03546 0.5904,4.03546 0.62242,0 1.13167,0.675 1.13167,1.5 0,0.825 -0.81581,1.5 -1.81291,1.5 -0.9971,0 -3.1346,1.39017 -4.75,3.08928 -6.2036,6.52504 -11.78711,7.47785 -19.43335,3.31624 -6.1641,-3.35492 -8.05804,-6.58305 -5.51253,-9.3958 1.76115,-1.94606 1.75842,-2.01135 -0.0862,-2.06133 -1.04775,-0.0284 -5.95499,-2.01469 -10.90499,-4.41401 -4.95,-2.39932 -9.10852,-4.25508 -9.24115,-4.12391 -0.25329,0.2505 -12.44762,34.84786 -26.29013,74.58953 -4.50193,12.925 -10.63454,30.475 -13.628,39 -2.99347,8.525 -6.50677,18.65 -7.80734,22.5 -1.30057,3.85 -4.6912,13.525 -7.53473,21.5 -6.74506,18.9173 -11.17039,32.19591 -10.79714,32.39783 0.16417,0.0888 2.09849,0.97602 4.29849,1.97158 8.14002,3.68355 20.30491,12.71449 28.18942,20.92718 12.46879,12.98778 20.81127,28.79821 24.82869,47.05465 1.36599,6.20752 1.61925,10.81341 1.2097,22 -0.6336,17.3064 -2.49214,24.45481 -10.6984,41.14876 -5.4112,11.00797 -8.67425,15.79971 -20.77652,30.50994 -6.65307,8.08677 -8.69718,18.36095 -5.69852,28.64215 0.49845,1.709 -0.14506,2.67719 -3.1255,4.70245 l -3.75318,2.55036 -3.08785,-2.60399 C 392.50636,537.03049 387.7287,535 383.91165,535 c -4.42025,0 -11.5832,3.44152 -13.85508,6.65684 -6.01969,8.51945 -13.89135,27.48027 -17.99409,43.34316 -2.39755,9.26995 -2.71863,12.38248 -2.74077,26.56928 -0.0248,15.88635 0.006,16.11679 2.73346,20.24147 3.65019,5.52077 8.79713,8.78325 17.27637,10.95095 3.8308,0.97933 7.46689,2.09763 8.08019,2.4851 0.61331,0.38747 1.65462,3.4468 2.31403,6.79851 l 1.19893,6.09402 -4.52417,4.2131 c -8.52006,7.93425 -8.99439,10.02179 -9.69042,42.64757 -0.52434,24.57782 -0.89642,29.55785 -2.70365,36.18674 -4.06414,14.90715 -8.74248,24.72954 -17.93915,37.66401 -14.20215,19.97434 -34.83628,33.27645 -60.05823,38.71747 -8.48309,1.83002 -33.50919,2.62767 -42.71244,1.36137 z m 40.01551,-4.40121 c 19.40332,-3.71246 34.99666,-12.11822 50.11657,-27.01585 14.59175,-14.37724 24.0585,-31.86501 28.49503,-52.63833 1.92821,-9.02853 2.23807,-13.74675 2.38882,-36.3742 0.19534,-29.32049 0.11743,-28.96211 8.102,-37.27008 4.34828,-4.5244 4.50965,-4.90215 3.71393,-8.69384 -0.82966,-3.95345 -0.85062,-3.96818 -7.93022,-5.57473 -8.72113,-1.97904 -13.56322,-4.86883 -17.26122,-10.30159 -5.23388,-7.68912 -6.64436,-13.06532 -6.60082,-25.15976 0.0699,-19.42919 6.7669,-42.25417 19.68453,-67.09002 6.75666,-12.99057 19.43568,-16.81667 31.1368,-9.39604 2.54137,1.61169 5.18732,2.71178 5.87987,2.44465 0.90749,-0.35004 1.26327,-3.62419 1.27375,-11.72215 0.0131,-10.11655 0.28596,-11.81887 2.73763,-17.08026 1.63871,-3.51673 5.45308,-8.69352 9.57869,-13 14.68425,-15.32803 23.01615,-32.97936 25.24709,-53.48654 3.19336,-29.35385 -7.39423,-57.75785 -28.69535,-76.98289 C 405.61868,360.16814 385.52798,347 383.43162,347 c -1.39585,0 -0.5236,2.10255 1.11501,2.68773 4.10862,1.46727 15.7115,8.78275 21.27941,13.4164 20.92979,17.41796 33.70539,47.24012 31.44224,73.39587 -0.93925,10.85513 -4.78942,25.24945 -9.36584,35.01527 -3.80451,8.11862 -9.53817,17.73644 -12.22227,20.50201 -3.89656,4.01485 -11.2556,13.79069 -13.10681,17.41124 -2.83606,5.54673 -4.75059,13.10921 -4.76486,18.82148 -0.007,2.6125 -0.22301,4.75 -0.48108,4.75 -0.25806,0 -2.29603,-0.95219 -4.52881,-2.11599 -12.08366,-6.29835 -28.42075,2.01328 -36.76588,18.70496 -6.04193,12.08488 -12.65421,35.6331 -14.20121,50.57458 -1.10765,10.6981 0.0642,25.54414 2.62882,33.30444 2.33969,7.07964 10.30384,14.85096 17.36992,16.94936 2.93116,0.87046 6.57114,1.58265 8.08885,1.58265 4.27911,0 4.25785,1.45897 -0.10482,7.19591 -7.60052,9.99474 -8.2204,12.99205 -8.43871,40.80409 -0.20363,25.94196 -0.88727,30.91779 -6.73219,49 -9.85702,30.49432 -34.40075,52.90319 -67.56941,61.69209 -8.32018,2.20465 -12.01288,2.60461 -24.77735,2.68368 -17.2555,0.10688 -30.07252,-2.00678 -47.2527,-7.79249 -7.57079,-2.54958 -10.2473,-3.09804 -10.2473,-2.09982 0,2.84757 26.03298,10.0046 43,11.82164 9.26517,0.99223 28.46461,0.57234 35.51551,-0.77672 z m 1.60731,-6.11116 c 17.81947,-3.3803 31.31348,-10.76363 45.44729,-24.86679 13.26785,-13.23908 20.4156,-26.41073 25.6664,-47.29723 1.96416,-7.813 2.17832,-11.00887 1.99384,-29.7532 -0.28461,-28.91797 1.47833,-38.96388 8.44665,-48.13214 l 2.38058,-3.13214 -4.28343,-0.64234 c -5.55146,-0.83249 -13.96838,-5.67041 -17.1715,-9.86991 -1.38766,-1.81932 -3.77844,-5.98887 -5.31284,-9.26566 -2.70819,-5.78351 -2.78835,-6.44053 -2.73991,-22.45781 0.04,-13.23112 0.49765,-18.5802 2.30999,-27 4.53755,-21.08074 14.59804,-45.46371 21.54037,-52.20601 7.32669,-7.11559 17.12739,-9.48703 26.51636,-6.41606 2.72754,0.89214 5.21212,1.62207 5.52128,1.62207 0.30915,0 0.5621,-1.70546 0.5621,-3.7899 0,-10.76183 6.60414,-24.89714 17.27152,-36.96749 14.43549,-16.33404 21.73016,-35.49071 21.72711,-57.05799 -0.004,-27.92145 -10.69341,-50.24958 -32.19253,-67.24366 -6.4949,-5.13392 -19.78933,-12.38111 -20.74228,-11.30723 -0.8774,0.98874 -4.96962,12.19531 -14.92283,40.86627 -11.66781,33.61001 -23.70438,68.01227 -30.96414,88.5 -6.34658,17.91065 -7.10383,19.50155 -9.29079,19.51899 -2.21812,0.0177 -2.96821,1.76232 -10.96358,25.5 -4.7204,14.01456 -12.04845,35.70503 -16.28454,48.20106 l -7.70199,22.72005 2.59629,5.12352 2.59628,5.12352 -3.31426,-0.73723 c -1.82284,-0.40548 -3.93915,-0.78509 -4.70291,-0.84357 -0.91989,-0.0704 -5.56164,10.35821 -13.75065,30.89366 -6.7991,17.05 -12.61992,31.79659 -12.93515,32.77019 -0.43215,1.33472 0.32305,2.14465 3.06987,3.29234 2.00366,0.83719 3.49937,1.8406 3.3238,2.22981 -0.17557,0.38921 -4.19625,6.55766 -8.93485,13.70766 -19.87538,29.98968 -36.75398,63.81113 -51.27637,102.7479 l -2.51679,6.7479 2.70439,1.36558 c 3.46366,1.74896 17.22396,6.14729 23.7044,7.57685 14.76477,3.25705 36.91522,3.45867 52.62282,0.47899 z m 35.15223,-145.46169 c -4.80829,-1.03277 -7.8822,-3.42904 -10.81217,-8.42865 -4.75791,-8.11877 -4.89481,-21.56033 -0.36436,-35.77431 1.84275,-5.7815 1.95385,-6.98582 0.77605,-8.41262 -1.08593,-1.31553 -1.10834,-1.75479 -0.10671,-2.09186 2.66218,-0.89588 4.15425,-3.51159 7.1198,-12.48154 C 324.70477,571.50686 324.74898,560 316.82171,560 c -4.77304,0 -6.15188,0.89455 -4.92173,3.1931 1.59421,2.97882 0.31287,6.48562 -2.64063,7.2269 -3.4715,0.87129 -4.46272,0.0369 -4.46272,-3.75651 0,-6.00535 5.48237,-10.66349 12.55034,-10.66349 2.79206,0 4.42142,0.77176 6.93399,3.28433 6.68617,6.68617 6.87649,21.07343 0.51652,39.04597 -2.137,6.0389 -2.6038,8.54309 -1.85373,9.9446 0.80838,1.51046 0.60714,1.9766 -1.03918,2.40713 -2.3615,0.61754 -2.07083,-0.20064 -6.1524,17.31797 -3.74714,16.0832 -3.73864,23.47307 0.0316,27.4863 2.61302,2.78144 4.63442,3.09889 8.50445,1.33558 1.79819,-0.81931 2.37857,-1.65686 1.90563,-2.75 -0.37404,-0.86453 -0.88292,-2.74408 -1.13084,-4.17677 -0.88987,-5.14231 8.18612,-8.92385 10.9583,-4.56583 1.1596,1.82296 0.87768,7.9142 -0.48941,10.57432 -2.59945,5.05808 -9.68848,8.29162 -15.46021,7.05193 z M 205.69201,788.74355 c 12.23114,-34.55655 29.19359,-68.4967 49.17598,-98.39614 4.83457,-7.23392 8.5213,-13.42142 8.19272,-13.75 -1.50716,-1.50716 -3.39291,-0.2652 -5.31352,3.4995 -2.43498,4.77296 -3.33241,4.72131 -1.94623,-0.11202 1.16618,-4.06623 0.64925,-4.50707 -6.38238,-5.44281 -4.22005,-0.56159 -5.29804,-0.38432 -6.12195,1.00672 -0.55,0.92858 -1.76868,2.64748 -2.70818,3.81976 -1.65464,2.06464 -1.67586,2.01097 -0.6771,-1.71233 1.172,-4.36916 1.26389,-4.16453 -2.24768,-5.00523 -2.21777,-0.53095 -2.80091,-0.19834 -3.6981,2.10932 -1.57463,4.05014 -10.75789,29.90281 -15.7146,44.23968 -2.3769,6.875 -9.9765,28.45459 -16.88799,47.95464 -6.91149,19.50005 -12.56635,35.81255 -12.56635,36.25 0,0.43745 2.5875,0.79246 5.75,0.78891 l 5.75,-0.006 5.39538,-15.24355 z M 186.29546,801.25 c 0.39204,-0.9625 3.3244,-9.175 6.51636,-18.25 3.19195,-9.075 7.89038,-22.35 10.44094,-29.5 2.55057,-7.15 7.95935,-22.45 12.01952,-34 4.06016,-11.55 9.51152,-26.98653 12.11412,-34.3034 4.30117,-12.09217 4.58897,-13.44643 3.16108,-14.87432 -1.42789,-1.42789 -1.71801,-1.28646 -3.18656,1.5534 -1.82327,3.52582 -2.98711,4.13967 -2.13168,1.12432 0.31207,-1.1 0.7947,-2.81174 1.07253,-3.80388 0.36305,-1.29648 -0.77029,-2.70288 -4.02924,-5 -2.4939,-1.75786 -4.73184,-3.19612 -4.9732,-3.19612 -0.24135,0 -1.12868,1.2375 -1.97182,2.75 l -1.533,2.75 0.25106,-3.89463 c 0.13808,-2.14205 -0.22548,-4.0634 -0.80792,-4.26966 -0.6459,-0.22874 -2.35207,6.55656 -4.3739,17.39463 -7.51976,40.30981 -19.61552,81.38027 -34.72929,117.92133 -0.42079,1.01736 9.15801,9.29019 10.80518,9.33201 0.35366,0.009 0.96377,-0.77118 1.35582,-1.73368 z m -15.49883,-10.50894 c 0,-0.69242 -3.0375,-2.33415 -6.75,-3.64829 C 147.31847,781.1714 129.6917,769.93203 116.4676,756.75493 105.95296,746.27768 103.10844,742.86387 98.231662,734.8694 90.531954,722.24732 86.889035,707.71149 86.83152,689.38099 c -0.09096,-28.98949 8.546314,-50.05187 29.81899,-72.71497 15.78284,-16.81444 22.19717,-27.51737 25.1205,-41.91602 1.11211,-5.47758 2.41629,-6.86651 4.57562,-4.87292 2.72675,2.51745 11.96228,4.3465 19.81709,3.92468 15.41623,-0.82789 24.66023,-7.52115 37.89307,-27.43709 9.85368,-14.83016 15.7894,-29.28634 19.65329,-47.86467 3.10837,-14.9457 3.05698,-22.16837 -0.19725,-27.72129 -3.12564,-5.3335 -6.15884,-7.50664 -12.61966,-9.04137 l -4.77953,-1.13534 3.25678,-4.26661 c 5.15989,-6.75983 7.21898,-13.61189 7.95073,-26.45773 1.97083,-34.59822 12.76786,-62.82304 30.20915,-78.9706 17.73625,-16.42064 39.0405,-23.88666 64.26633,-22.52197 6.325,0.34218 14.4121,1.26051 17.97133,2.04075 6.2224,1.36405 8.02867,1.30141 8.02867,-0.27842 0,-1.45918 -11.76452,-3.3343 -24.27264,-3.86875 -19.27752,-0.82371 -33.64902,2.1503 -50.72736,10.49739 -5.77572,2.8229 -9.57728,5.74148 -16.53543,12.69479 -10.26306,10.25592 -15.41135,17.50115 -20.66768,29.08575 -5.67172,12.50012 -7.81919,22.56032 -8.83637,41.3956 -0.91237,16.89454 -1.78628,21.8 -5.01358,28.14248 -1.74307,3.42559 -6.8902,8.65493 -10.51612,10.6841 -1.35464,0.75809 -1.50256,1.50599 -0.74648,3.77423 0.89701,2.69103 1.20822,2.81651 6.39026,2.57647 6.85039,-0.31733 11.42491,2.43937 14.73329,8.87859 1.99342,3.87985 2.21847,5.37764 1.65157,10.99193 -2.15496,21.34204 -13.92837,50.62632 -27.10154,67.4103 -8.50032,10.83029 -20.47458,17.123 -32.40985,17.03204 -6.45176,-0.0492 -9.04463,-1.00044 -17.69082,-6.49034 -1.96647,-1.24862 -2.57865,-1.22022 -4.96964,0.23055 -2.64454,1.60461 -2.71792,1.89127 -2.42992,9.49182 0.48068,12.68568 -1.62154,16.90006 -15.85189,31.77865 -12.45726,13.02475 -19.37182,22.36592 -25.36426,34.2657 -21.849477,43.38862 -16.27894,84.0091 16.26099,118.57551 10.14914,10.78119 21.80776,19.02855 38.59747,27.304 14.92548,7.35659 18.5,8.54349 18.5,6.14283 z m 3.54595,-7.49106 c 1.9298,-4.60122 11.89997,-33.34809 14.65342,-42.25 5.78826,-18.71354 17.25325,-66.28266 19.2814,-80 1.16638,-7.88884 1.32178,-8.12767 4.85706,-7.46445 l 3.18348,0.59723 3.6726,-11.31639 c 13.77872,-42.45643 17.72315,-55.14158 17.3393,-55.76266 -0.24012,-0.38853 -2.25833,-1.5279 -4.4849,-2.53195 -2.22657,-1.00404 -4.04831,-2.17334 -4.04831,-2.59843 0,-1.00505 10.11053,-3.97307 11.21305,-3.29168 0.46371,0.28659 2.20147,-2.55079 3.86167,-6.3053 1.6602,-3.7545 3.42739,-7.72637 3.92709,-8.82637 0.96182,-2.11727 2.79079,-6.49514 6.47556,-15.5 1.23783,-3.025 7.73752,-18.48678 14.44377,-34.35951 6.70625,-15.87273 12.05495,-28.95756 11.88602,-29.07741 -0.16894,-0.11985 -1.76966,-0.80016 -3.55716,-1.51181 -1.7875,-0.71165 -3.25,-1.75552 -3.25,-2.31971 0,-0.84593 7.07854,-17.91745 12.53521,-30.23156 0.73116,-1.65 8.38903,-19.425 17.0175,-39.5 8.62848,-20.075 17.72197,-41.225 20.20778,-47 2.4858,-5.775 6.23431,-14.68212 8.33002,-19.79359 l 3.81038,-9.29359 -2.23147,-0.8484 c -5.50838,-2.09429 -18.30776,-3.30846 -29.90846,-2.83716 -9.7649,0.39671 -13.88958,1.04794 -20.26096,3.19892 -20.00167,6.75256 -37.86113,20.15676 -48.02391,36.04375 -8.67416,13.55989 -12.80612,29.24139 -14.36827,54.53007 -0.98655,15.97074 -2.26699,21.5756 -6.787,29.70875 l -2.33902,4.20875 5.7591,2.79125 c 5.26186,2.55025 6.05748,3.38579 9.21498,9.67726 4.77381,9.51205 4.70385,15.88799 -0.35238,32.11399 -7.07638,22.70885 -10.2467,29.70934 -19.75633,43.62464 -7.17836,10.504 -21.17678,24.2418 -27.64286,27.12822 -3.0474,1.36034 -7.522,2.24909 -12.70431,2.52332 -6.77596,0.35857 -9.01736,0.0382 -14.64921,-2.09367 l -6.64922,-2.51701 -1.6382,6.52174 c -3.72916,14.84584 -11.03733,26.74385 -25.11833,40.89369 -13.67493,13.74179 -19.87415,23.50163 -24.745732,38.95882 -7.275481,23.0846 -5.413347,49.3103 4.959302,69.84525 10.24604,20.2843 31.62302,40.19926 54.84139,51.09067 4.74706,2.22677 17.68594,7.38246 18.73658,7.46586 0.40512,0.0322 1.44434,-1.62903 2.30937,-3.69153 z m 5.85154,-172.91563 c -3.66101,-0.75712 -8.5013,-6.68941 -9.09999,-11.15301 -0.73004,-5.44284 0.25469,-8.86184 3.38897,-11.76659 3.11316,-2.88518 5.41821,-3.06157 7.65854,-0.58603 3.26327,3.60587 1.24256,11.17126 -2.98383,11.17126 -1.08786,0 -1.3089,0.6138 -0.81029,2.25 1.10735,3.63372 3.55374,5.75 6.64694,5.75 5.2204,0 11.50263,-7.21668 19.30798,-22.17994 3.82152,-7.32603 6.8794,-13.54506 6.79529,-13.82006 -0.0841,-0.275 -0.43671,-1.22836 -0.78357,-2.11858 -0.4233,-1.08642 0.006,-1.78519 1.30722,-2.12534 1.15947,-0.30321 2.4427,-2.06312 3.19468,-4.38142 2.07096,-6.3846 7.94286,-17.54028 12.08774,-22.96479 C 231.36457,532.57193 238.89312,528 244.04559,528 c 6.79588,0 11.85168,8.48285 9.44113,15.84076 -1.02581,3.13118 -1.63111,3.65924 -4.19445,3.65924 -2.57052,0 -3.04304,-0.41614 -3.32966,-2.93233 -0.24013,-2.10813 0.28471,-3.39903 1.86729,-4.59277 4.32261,-3.26054 -1.26208,-9.55857 -6.40006,-7.21755 -6.024,2.74472 -23.02649,35.77077 -20.67629,40.16215 1.44494,2.69989 1.32979,3.0805 -0.93193,3.0805 -1.39566,0 -2.58908,1.39334 -4.06842,4.75 -4.42555,10.04161 -6.64413,13.63123 -12.18936,19.72214 -3.28062,3.60345 -7.34419,6.93669 -9.5,7.7926 -4.35909,1.73067 -10.83565,2.69709 -13.86972,2.06963 z m 68.60251,61.27262 c 0,-0.21616 -0.69837,-0.661 -1.55194,-0.98855 -0.88992,-0.34149 -1.29132,-0.17385 -0.94098,0.39301 0.58726,0.95021 2.49292,1.40545 2.49292,0.59554 z m 23.42908,-34.01556 c 6.95957,-17.54972 12.29763,-32.25301 11.86235,-32.67398 -0.43529,-0.42097 -3.10402,-1.63741 -5.93053,-2.70321 l -5.13909,-1.93781 -12.54014,31.61178 c -6.89707,17.38649 -12.68448,32.23852 -12.8609,33.00453 -0.34973,1.51846 10.20595,6.4388 11.31688,5.27516 0.35071,-0.36734 6.33185,-15.02676 13.29143,-32.57647 z m -29.97908,31.4846 c -1.73235,-1.6849 -11.44046,-4.90048 -12.01047,-3.97819 -0.30793,0.49825 0.7047,1.406 2.2503,2.01722 6.89658,2.72734 11.49884,3.652 9.76017,1.96097 z M 247.59999,657.25 c 1.66549,-4.2625 7.34107,-18.5964 12.6124,-31.85311 5.27133,-13.25671 9.58424,-24.56694 9.58424,-25.13386 0,-1.28276 -10.55351,-5.65701 -11.79588,-4.88918 -0.4991,0.30846 -1.71544,2.71303 -2.70298,5.34349 -0.98753,2.63047 -5.57854,14.41346 -10.20223,26.18443 -10.5814,26.93809 -12.82159,33.41696 -11.69624,33.82685 0.49353,0.17977 2.69733,1.17794 4.89733,2.21817 2.2,1.04022 4.51192,1.92774 5.1376,1.97226 0.62568,0.0445 2.50027,-3.40655 4.16576,-7.66905 z m -19.80336,6.30902 c 0,-0.24254 -0.45,-0.7191 -1,-1.05902 -0.55,-0.33992 -1,-0.14148 -1,0.44098 0,0.58246 0.45,1.05902 1,1.05902 0.55,0 1,-0.19844 1,-0.44098 z M 234.97533,645.5 c 2.7848,-7.15 8.38383,-21.45449 12.44229,-31.78776 4.05845,-10.33327 7.37901,-19.15857 7.37901,-19.61178 0,-1.10337 -13.32208,-6.02419 -14.14998,-5.22662 -0.35749,0.34439 -5.25957,15.02616 -10.89351,32.62616 -5.63394,17.6 -10.43388,32.51502 -10.66652,33.1445 -0.43013,1.1638 7.13014,4.37138 9.51772,4.03806 0.71925,-0.10041 3.58619,-6.03256 6.37099,-13.18256 z m 56.18293,-43 c -0.31659,-0.825 -0.75246,-1.5 -0.96862,-1.5 -0.21615,0 -0.39301,0.675 -0.39301,1.5 0,0.825 0.43588,1.5 0.96862,1.5 0.53273,0 0.70959,-0.675 0.39301,-1.5 z m -4.36163,-1.86122 c 0,-0.74867 -2.51504,-2.32367 -5.58898,-3.5 -6.69807,-2.5632 -6.6413,-2.5585 -6.23434,-0.51617 0.17782,0.89243 2.34832,2.44229 4.82332,3.44412 5.48813,2.2215 7,2.34505 7,0.57205 z M 293.11919,582.5 c 2.48379,-7.15 7.07838,-20.2 10.21019,-29 3.13182,-8.8 6.26366,-17.8 6.95965,-20 0.696,-2.2 3.5879,-10.46953 6.42646,-18.37673 2.83856,-7.9072 4.89736,-14.64038 4.57511,-14.96263 -1.26053,-1.26053 -9.52168,-3.92482 -9.96176,-3.21275 -0.25666,0.41527 -5.84842,15.33438 -12.42614,33.15357 -6.57772,17.8192 -14.24468,38.47354 -17.03769,45.89854 -2.793,7.425 -5.18848,14.14247 -5.32329,14.9277 -0.26067,1.51846 10.22107,6.27465 11.4082,5.17658 0.35931,-0.33235 2.68548,-6.45428 5.16927,-13.60428 z m -20.82256,12.15847 c 0,-1.12702 -11.90928,-5.93062 -12.24043,-4.93718 -0.69419,2.08257 -0.0742,2.7744 3.92265,4.37699 4.44528,1.78241 8.31778,2.04322 8.31778,0.56019 z m -15.68125,-5.36112 c -0.44614,-2.31662 -12.53595,-6.98015 -14.08351,-5.43259 -1.38668,1.38668 -1.50471,1.3033 6.26476,4.42562 7.79538,3.13273 8.23914,3.18988 7.81875,1.00697 z M 281.72745,568.75 c 4.55052,-12.2375 11.85125,-31.925 16.22386,-43.75 4.3726,-11.825 8.62043,-23.24367 9.4396,-25.37482 0.81918,-2.13115 1.34886,-4.01537 1.17707,-4.18716 -0.6724,-0.6724 -10.0723,-4.4704 -10.3577,-4.185 -0.16681,0.16681 -7.76692,19.41562 -16.88915,42.77513 -9.12222,23.35952 -17.47645,44.67995 -18.56496,47.37874 -1.0885,2.69878 -1.8622,5.0009 -1.71932,5.11581 0.41854,0.33662 11.2034,4.36801 11.83835,4.42519 0.31822,0.0287 4.30173,-9.96039 8.85225,-22.19789 z m -18.54013,4 c 2.60015,-6.7375 5.11853,-13.15 5.59641,-14.25 0.47787,-1.1 3.21193,-8.075 6.07568,-15.5 2.86375,-7.425 8.52116,-21.96985 12.57202,-32.3219 4.05086,-10.35204 7.36194,-19.35204 7.35796,-20 -0.006,-1.05768 -10.78977,-5.31587 -11.42233,-4.51055 -0.14362,0.18285 -4.67052,10.90745 -10.05978,23.83245 -5.38927,12.925 -14.0424,33.625 -19.22919,46 -6.10201,14.55858 -9.13532,22.97508 -8.59413,23.84603 0.73624,1.18484 8.96581,4.65836 11.89425,5.02029 0.59487,0.0735 3.20897,-5.37882 5.80911,-12.11632 z m -23.39069,9.75 c 0,-1.62882 -0.91477,-1.85367 -3.50206,-0.86084 -1.32869,0.50987 -1.39581,0.81021 -0.33179,1.48469 2.0727,1.31388 3.83385,1.0273 3.83385,-0.62385 z m 88.28045,-99.75 c 2.50493,-7.2875 14.73303,-42.275 27.17355,-77.75 19.97176,-56.95085 26.19197,-74.65413 40.05494,-114 1.84095,-5.225 9.50057,-27.05 17.02137,-48.5 7.5208,-21.45 15.70676,-44.79032 18.19103,-51.86738 3.66172,-10.43131 4.25766,-13.03157 3.14776,-13.73468 -2.34646,-1.48646 -3.58788,-0.99701 -4.69746,1.85206 -1.63333,4.19386 -13.2476,35.53158 -24.15417,65.17296 -5.37848,14.61737 -16.76188,45.47704 -25.29647,68.57704 -8.53458,23.1 -17.84161,48.3 -20.6823,56 -2.84068,7.7 -10.51139,28.4 -17.04603,46 -6.53463,17.6 -15.47057,41.675 -19.85764,53.5 -4.38707,11.825 -8.2481,22.19052 -8.58005,23.03449 -0.43983,1.11821 0.55598,1.9799 3.67073,3.17636 2.35086,0.90303 4.77515,1.67501 5.38731,1.71551 0.61216,0.0405 3.1625,-5.88886 5.66743,-13.17636 z m -11.48313,-8 c 3.35064,-8.9375 20.53974,-55.4 38.19799,-103.25 17.65826,-47.85 36.53914,-98.925 41.95753,-113.5 5.41838,-14.575 14.57572,-39.2426 20.34964,-54.81689 l 10.49803,-28.31688 -2.42738,-1.10599 c -1.47351,-0.67137 -2.7533,-0.74333 -3.25676,-0.18311 -0.45616,0.50758 -3.41803,7.67287 -6.58194,15.92287 -3.1639,8.25 -10.85686,28.05 -17.09545,44 -6.23859,15.95 -19.03957,48.8 -28.44663,73 -21.9134,56.37302 -42.26594,108.6487 -46.52505,119.5 -12.9922,33.10137 -23.4673,60.34091 -23.4673,61.02459 0,0.77212 7.29208,3.73103 9.60262,3.89646 0.60645,0.0434 3.84406,-7.23355 7.1947,-16.17105 z m -8.15068,-18.25 c 6.2627,-15.95 14.26529,-36.425 17.78354,-45.5 7.84963,-20.2474 33.92473,-87.23509 52.54903,-135 30.02632,-77.00716 33.07155,-84.80448 36.48585,-93.42218 3.96194,-9.99992 4.27041,-11.86836 1.88231,-11.40114 -1.06127,0.20763 -3.70392,5.15398 -7.38527,13.82332 -5.23309,12.32359 -24.40188,58.04166 -32.49439,77.5 -1.82992,4.4 -7.59534,18.125 -12.81206,30.5 -5.21671,12.375 -13.82787,32.85 -19.1359,45.5 -5.30803,12.65 -10.25311,24.35 -10.98905,26 -0.73594,1.65 -3.37192,7.95 -5.85772,14 -2.4858,6.05 -13.10414,31.41504 -23.59631,56.36676 -10.49217,24.95171 -19.07667,45.78266 -19.07667,46.291 0,1.13699 7.9772,4.79748 9.87996,4.53361 0.81986,-0.11369 6.0017,-11.96213 12.76668,-29.19137 z m -25.64664,24.18995 c 0,-0.71598 68.21739,-164.68783 74.88158,-179.99036 1.14981,-2.64022 1.71153,-4.56615 1.24828,-4.27985 -0.46326,0.28631 -3.44504,6.49649 -6.62618,13.80041 -4.65678,10.69198 -31.35402,70.94406 -70.12864,158.2709 -4.10249,9.23949 -4.30669,10.08576 -2.71449,11.25 1.60163,1.17115 3.33945,1.66494 3.33945,0.9489 z M 437.1524,172.51525 c 0.70217,-1.8298 -2.44912,-3.69363 -4.30537,-2.5464 -0.73801,0.45612 -1.06538,1.54972 -0.7275,2.43023 0.77317,2.01485 4.27328,2.09565 5.03287,0.11617 z m 54.63411,-4.12507 c 4.40642,-3.98094 6.66819,-9.63208 5.58399,-13.95188 C 496.24879,149.96907 491.23105,146 486.70269,146 c -3.75623,0 -3.90322,0.13002 -4.52205,4 -0.68191,4.26445 -1.23856,4.73527 -3.25133,2.75 -1.01576,-1.00188 -1.55171,-0.86469 -2.7,0.69113 -2.20694,2.99018 -1.75156,5.26202 1.20343,6.00368 l 2.63611,0.66162 -2.76601,2.88709 c -3.26783,3.41087 -2.89312,5.07496 1.64637,7.31162 5.26338,2.59334 8.35815,2.13168 12.8373,-1.91496 z m -62.19323,0.44526 c 0.37746,-1.98145 -3.50529,-3.5268 -5.0301,-2.00199 -0.56766,0.56766 -0.74937,1.76892 -0.4038,2.66947 0.8079,2.10536 5.00388,1.58994 5.4339,-0.66748 z m 23.60636,-35.8935 c 5.82834,-18.45694 10.59699,-34.184439 10.59699,-34.950003 0,-3.664641 -2.30078,2.176743 -8.47151,21.508063 -3.68686,11.55 -8.66816,27.03925 -11.06955,34.42055 -2.40139,7.3813 -4.09976,13.85159 -3.77417,14.37842 0.97185,1.57248 1.66593,-0.35709 12.71824,-35.35703 z M 421.29663,166 c 0,-0.80994 -0.7875,-1.62427 -1.75,-1.80963 -1.22785,-0.23646 -1.75,0.30348 -1.75,1.80963 0,1.50615 0.52215,2.04609 1.75,1.80963 0.9625,-0.18536 1.75,-0.99969 1.75,-1.80963 z m 15.5,-0.92023 c 0,-0.44121 -2.3625,-1.72094 -5.25,-2.84384 -2.8875,-1.1229 -6.0375,-2.3585 -7,-2.74577 -1.15361,-0.46417 -1.74818,-0.24168 -1.74465,0.65285 0.003,0.74635 2.81545,2.53117 6.25,3.96628 5.98257,2.49978 7.74465,2.72058 7.74465,0.97048 z m -21,-1.07977 c 0,-0.55 -0.45,-1 -1,-1 -0.55,0 -1,0.45 -1,1 0,0.55 0.45,1 1,1 0.55,0 1,-0.45 1,-1 z m 23,-4.83189 c 0,-1.34698 -12.91897,-6.10824 -13.59701,-5.01115 -0.74331,1.20271 -0.95405,1.05437 5.09701,3.58779 5.35329,2.24129 8.5,2.76821 8.5,1.42336 z M 426.9271,139.46365 c 4.3518,-10.43001 8.5118,-20.31365 9.24444,-21.96365 3.19211,-7.18902 5.8479,-14.61053 5.39165,-15.06677 -0.27219,-0.27219 -1.85873,2.78148 -3.52564,6.78594 -1.6669,4.00445 -7.12803,16.64149 -12.13583,28.0823 -5.0078,11.4408 -9.10509,21.0408 -9.10509,21.33333 0,0.29253 0.49907,0.36551 1.10905,0.16218 0.60998,-0.20332 4.66961,-8.90332 9.02142,-19.33333 z m 47.13446,14.54383 c 1.97774,-5.03485 0.33684,-6.38347 -1.73467,-1.42567 -1.73905,4.16214 -1.89714,5.41819 -0.68195,5.41819 0.46657,0 1.55405,-1.79663 2.41662,-3.99252 z m -5.66389,-1.55405 c 0.35154,-1.40061 0.47261,-2.66068 0.26906,-2.80014 -0.20356,-0.13946 -3.49654,-1.46366 -7.31774,-2.94265 -5.29745,-2.05038 -7.13458,-2.39475 -7.73469,-1.44987 -1.87572,2.95339 -0.69203,4.47536 5.43233,6.98483 7.9737,3.26723 8.5798,3.2807 9.35104,0.20783 z m -53.06909,-0.55409 c 0.8643,-2.72318 0.35962,-3.1077 -8.39274,-6.39458 -6.06579,-2.27795 -7.51701,-2.52153 -8.24874,-1.38452 -1.76373,2.74057 -0.25814,4.33902 6.61472,7.02271 8.56583,3.34474 9.1903,3.39185 10.02676,0.75639 z M 441.43631,150.75 c 0.43922,-1.7875 0.81248,-3.62869 0.82945,-4.09153 0.017,-0.46285 -2.56037,-1.89577 -5.72744,-3.18427 l -5.75831,-2.34274 -1.49169,2.88461 c -2.31372,4.47424 -1.85061,5.57976 3.25831,7.77813 6.74585,2.90274 7.95473,2.76074 8.88968,-1.0442 z m -56.63968,-2.82946 c 0,-3.93716 0.0966,-4.05823 2.76985,-3.47109 2.41611,0.53067 2.91937,0.21225 3.94059,-2.49327 1.11531,-2.95481 1.03129,-3.15025 -1.77494,-4.12851 l -2.94567,-1.02687 2.62449,-3.11903 2.62449,-3.11903 -3.33163,-2.78137 c -4.90191,-4.0923 -8.92142,-3.76713 -13.80536,1.11681 -6.29229,6.29229 -6.68917,14.36063 -0.98688,20.06291 2.35238,2.35238 3.92518,3.03891 6.96198,3.03891 3.92299,0 3.92308,-9e-5 3.92308,-4.07946 z M 395.25789,142.75 c 1.23858,-2.96675 1.29144,-3.75 0.25305,-3.75 -0.72189,0 -1.85293,1.49445 -2.51342,3.321 -2.55136,7.05564 -0.65633,7.41531 2.26037,0.429 z m 49.02004,-1.71974 c 0.58476,-0.94617 -4.42004,-3.47481 -9.30332,-4.70044 -4.20358,-1.05503 -2.01797,1.76564 2.86619,3.69899 5.48185,2.16995 5.69451,2.20304 6.43713,1.00145 z m 55.51667,-4.52921 c 1.59425,-0.82442 4.15941,-3.15189 5.70034,-5.17216 2.25525,-2.95679 2.80169,-4.7079 2.80169,-8.97832 0,-6.63109 -3.0142,-10.20747 -9.31524,-11.05261 l -4.1204,-0.55267 -0.66872,4.18195 c -0.52868,3.3062 -1.00659,4.05029 -2.28218,3.55326 -2.99624,-1.16748 -3.3747,-0.98775 -4.74116,2.25156 -1.30932,3.10387 -1.26441,3.25691 1.13215,3.85841 3.09652,0.77718 3.09995,1.16923 0.0383,4.36493 -2.8041,2.92685 -2.4426,3.94415 2.45727,6.91502 4.1659,2.52585 5.19372,2.59788 8.99797,0.63063 z M 446.68785,133.75 c 2.51856,-6.73235 2.54562,-6.63382 -2.40488,-8.75586 -5.85677,-2.5105 -6.34906,-2.49343 -7.37756,0.25586 -2.41235,6.44846 -2.43983,6.35883 2.61666,8.53412 6.11943,2.63256 6.16827,2.63233 7.16578,-0.0341 z m 38.65981,-13.21788 C 487.01952,116.53078 487.16977,115 485.89063,115 c -0.4983,0 -1.59598,2.025 -2.4393,4.5 -1.80962,5.31094 -0.24687,6.1615 1.89633,1.03212 z m -35.03808,1.44692 c 0.58298,-0.94327 -2.81119,-2.76161 -8.26295,-4.42664 -3.94921,-1.20613 -2.45556,1.27743 2,3.3255 5.10378,2.34603 5.45536,2.40785 6.26295,1.10114 z m 29.65348,-4.43685 c 0.2706,-1.5882 -0.97914,-2.4904 -6.6198,-4.77895 -7.49105,-3.03928 -8.98229,-3.02929 -9.79161,0.0656 -0.44678,1.70848 0.58391,2.4231 7.11123,4.93052 4.19856,1.61284 7.93364,2.66429 8.30018,2.33655 0.36653,-0.32774 0.81653,-1.4769 1,-2.5537 z m -49.78414,-2.06312 c 0.52641,-1.75239 -0.35564,-2.38588 -6.6376,-4.76722 -3.98458,-1.51046 -7.77687,-2.73854 -8.4273,-2.72907 -1.13731,0.0166 -2.8948,3.77314 -2.12527,4.54267 1.08348,1.08349 15.40266,6.09334 15.94549,5.57886 0.35068,-0.33237 0.91079,-1.51373 1.24468,-2.62524 z m -30.57072,-3.31243 c 0.25868,-3.59775 0.59819,-4.22176 2,-3.67591 3.08198,1.20009 3.44299,1.03238 4.82345,-2.24073 1.34059,-3.17858 1.31431,-3.25 -1.19614,-3.25 h -2.56685 l 2.22322,-3.955676 c 2.51616,-4.476906 1.94873,-5.935977 -3.38012,-8.691636 -3.55625,-1.839006 -6.55086,-1.203236 -10.67397,2.266137 -6.30168,5.302512 -7.64233,11.759975 -3.84444,18.517405 2.20173,3.91745 5.94248,5.92942 10.30328,5.54162 1.61026,-0.14319 2.06072,-1.02229 2.31157,-4.51121 z m 52.9778,2.23532 c 0.22243,-1.49227 -0.7589,-2.32989 -4.24202,-3.62083 -4.40809,-1.63375 -4.56103,-1.62408 -5.62039,0.35535 -1.27324,2.37907 -1.50822,2.1063 3.57304,4.14765 4.72292,1.8974 5.89967,1.73234 6.28937,-0.88217 z M 409.59652,109.25 c 0.54755,-1.5125 1.31472,-3.5375 1.70482,-4.5 0.43266,-1.06752 0.25766,-1.75 -0.44875,-1.75 -1.10477,0 -4.05596,5.79757 -4.05596,7.96788 0,2.0791 1.83231,0.95489 2.79989,-1.71788 z m 45.20011,-1.703 c 0,-0.8272 -1.61508,-1.90152 -3.75,-2.49442 -4.61114,-1.28058 -5.25,-1.29712 -5.25,-0.13591 0,0.71233 3.72845,2.41863 8.75,4.00438 0.1375,0.0434 0.25,-0.5749 0.25,-1.37405 z m 3.40769,-9.174945 c 0.51006,-1.670819 0.16011,-2.233951 -1.62904,-2.621404 -1.25326,-0.271402 -3.03573,-0.812799 -3.96106,-1.203105 -1.2356,-0.521182 -2.09477,0.08779 -3.23514,2.293022 l -1.55274,3.002668 4.23514,1.431744 c 4.45765,1.50697 4.85374,1.31979 6.14284,-2.902925 z m 11.59231,-3.097663 c 0,-0.399085 1.59879,-9.915294 3.55287,-21.147131 1.95408,-11.231837 3.19158,-20.737641 2.75,-21.124008 -0.44158,-0.386368 -2.82182,-1.484107 -5.28942,-2.439422 -4.44061,-1.719147 -4.50206,-1.714238 -6,0.479426 -2.73012,3.998108 -20.01345,34.068806 -20.01345,34.820739 0,0.403825 1.6875,1.338224 3.75,2.076441 2.0625,0.738217 4.21361,1.513813 4.78024,1.723546 0.56663,0.209733 4.38614,-7.021852 8.4878,-16.070189 4.10166,-9.048338 7.57978,-16.329306 7.72916,-16.179929 0.14937,0.149377 -2.41062,8.024527 -5.68888,17.500334 l -5.96047,17.22874 3.20108,1.29863 c 6.67672,2.70865 8.70107,3.135065 8.70107,1.832823 z m 12.80864,-7.108427 c 1.84103,-1.596716 4.7452,-7.158859 3.96934,-7.602171 -0.15289,-0.08736 -1.51548,-0.6903 -3.02798,-1.339873 -2.33861,-1.004364 -2.75,-1.773802 -2.75,-5.143464 0,-3.45937 -1.34911,-6.064675 -2.52933,-4.884455 -0.21795,0.21795 -1.08078,4.628427 -1.91739,9.80106 -1.19801,7.407109 -1.25901,9.571267 -0.28719,10.18855 2.02044,1.283354 4.29609,0.928697 6.54255,-1.019647 z M 448.16098,70.665549 c 5.88814,-9.447136 6.34733,-10.665548 4.01954,-10.665548 -1.00654,0 -4.65469,2.7995 -8.10698,6.221112 -6.19978,6.144666 -7.56277,6.652233 -4.77691,1.778888 1.81544,-3.175789 1.83991,-4 0.11871,-4 -1.16427,0 -4.35503,8.820079 -3.41374,9.436476 1.3045,0.854244 7.32618,4.533413 7.44152,4.546677 0.0806,0.0093 2.20361,-3.283656 4.71786,-7.317605 z"
     id="path3724"
     inkscape:connector-curvature="0" />
</svg>
